<svg width="200" height="200" viewBox="0 0 200 200" fill="none" xmlns="http://www.w3.org/2000/svg">
<g filter="url(#filter0_i_2028_2)">
<path d="M145.65 83.3333H145.833C155.779 83.3333 165.317 87.2842 172.35 94.3168C179.382 101.349 183.333 110.888 183.333 120.833C183.333 130.779 179.382 140.317 172.35 147.35C165.317 154.382 155.779 158.333 145.833 158.333H58.3334C47.6279 158.335 37.3324 154.217 29.5821 146.832C21.8317 139.447 17.2212 129.362 16.7067 118.669C16.1923 107.976 19.8134 97.4951 26.819 89.4001C33.8246 81.3052 43.6772 76.2173 54.3334 75.1917M145.65 83.3333C145.767 81.9611 145.828 80.5722 145.833 79.1667C145.852 67.3431 141.3 55.97 133.129 47.4237C124.959 38.8774 113.802 33.8192 101.989 33.306C90.1769 32.7929 78.6232 36.8644 69.7423 44.67C60.8615 52.4755 55.3406 63.4111 54.3334 75.1917M145.65 83.3333C144.811 92.5119 141.225 101.224 135.358 108.333L145.65 83.3333ZM54.3334 75.1917C55.65 75.0639 56.9834 75 58.3334 75C67.7167 75 76.375 78.1 83.3334 83.3333" fill="url(#paint0_linear_2028_2)"/>
</g>
<path d="M145.65 83.3333H145.833C155.779 83.3333 165.317 87.2842 172.35 94.3168C179.382 101.349 183.333 110.888 183.333 120.833C183.333 130.779 179.382 140.317 172.35 147.35C165.317 154.382 155.779 158.333 145.833 158.333H58.3334C47.6279 158.335 37.3324 154.217 29.5821 146.832C21.8317 139.447 17.2212 129.362 16.7067 118.669C16.1923 107.976 19.8134 97.4951 26.819 89.4001C33.8246 81.3052 43.6772 76.2173 54.3334 75.1917M145.65 83.3333C145.767 81.9611 145.828 80.5722 145.833 79.1667C145.852 67.3431 141.3 55.97 133.129 47.4237C124.959 38.8774 113.802 33.8192 101.989 33.306C90.1769 32.7929 78.6232 36.8644 69.7423 44.67C60.8614 52.4755 55.3406 63.4111 54.3334 75.1917M145.65 83.3333C144.811 92.5119 141.225 101.224 135.358 108.333M54.3334 75.1917C55.65 75.0639 56.9834 75 58.3334 75C67.7167 75 76.375 78.1 83.3334 83.3333" stroke="#252525" stroke-width="2" stroke-linecap="round" stroke-linejoin="round"/>
<defs>
<filter id="filter0_i_2028_2" x="15.6586" y="32.2628" width="168.675" height="131.071" filterUnits="userSpaceOnUse" color-interpolation-filters="sRGB">
<feFlood flood-opacity="0" result="BackgroundImageFix"/>
<feBlend mode="normal" in="SourceGraphic" in2="BackgroundImageFix" result="shape"/>
<feColorMatrix in="SourceAlpha" type="matrix" values="0 0 0 0 0 0 0 0 0 0 0 0 0 0 0 0 0 0 127 0" result="hardAlpha"/>
<feOffset dy="4"/>
<feGaussianBlur stdDeviation="2"/>
<feComposite in2="hardAlpha" operator="arithmetic" k2="-1" k3="1"/>
<feColorMatrix type="matrix" values="0 0 0 0 0 0 0 0 0 0 0 0 0 0 0 0 0 0 0.4 0"/>
<feBlend mode="normal" in2="shape" result="effect1_innerShadow_2028_2"/>
</filter>
<linearGradient id="paint0_linear_2028_2" x1="50.5" y1="57" x2="173" y2="147" gradientUnits="userSpaceOnUse">
<stop stop-color="#54BEEB"/>
<stop offset="0.943893" stop-color="#155583"/>
</linearGradient>
</defs>
</svg>
