<svg width="200" height="200" viewBox="0 0 200 200" fill="none" xmlns="http://www.w3.org/2000/svg">
<g clip-path="url(#clip0_2171_201)">
<circle cx="100" cy="100" r="97" fill="#0B090D" stroke="url(#paint0_linear_2171_201)" stroke-width="6"/>
<path d="M91.5 43.25H82.1719V96.0781C82.1719 98.9219 82.8906 100.781 84.3281 101.656C85.7656 102.531 87.6719 102.969 90.0469 102.969H92.25V107H62.3906V102.969H64.5938C66.9688 102.969 68.875 102.562 70.3125 101.75C71.75 100.938 72.4688 99.2031 72.4688 96.5469V43.25H63.2812C60.5938 43.25 58.6719 43.9844 57.5156 45.4531C56.3906 46.9219 55.6875 48.8125 55.4062 51.125L54.8906 55.25H49.9219L50.3906 38.4688H104.438L104.906 55.25H99.9375L99.4688 51.125C99.1875 48.8125 98.4688 46.9219 97.3125 45.4531C96.1562 43.9844 94.2188 43.25 91.5 43.25Z" fill="white"/>
<path d="M109.453 104.391V131.484L129.328 108.703C131.016 106.766 132.312 105.031 133.219 103.5C134.156 101.969 134.625 100.641 134.625 99.5156C134.625 98.7031 134.234 98.1406 133.453 97.8281C132.672 97.5469 131.484 97.4062 129.891 97.4062V93.4688H151.125V97.4062C148.844 97.4062 146.688 98.2812 144.656 100.031C142.625 101.781 140.5 103.906 138.281 106.406L124.359 122.062L144.609 150.281C146.453 152.812 148.219 154.734 149.906 156.047C151.625 157.328 153.375 157.969 155.156 157.969H155.344V162H154.312C151.094 162 148.453 161.875 146.391 161.625C144.328 161.375 142.594 160.922 141.188 160.266C139.781 159.609 138.547 158.734 137.484 157.641C136.453 156.516 135.344 155.094 134.156 153.375L117.609 129.656L109.453 136.266V151.078C109.453 153.922 110.172 155.781 111.609 156.656C113.047 157.531 114.953 157.969 117.328 157.969H118.594V162H90.6562V157.969H91.875C94.25 157.969 96.1562 157.562 97.5938 156.75C99.0312 155.938 99.75 154.203 99.75 151.547V104.016C99.75 101.328 99.0156 99.5781 97.5469 98.7656C96.0781 97.9219 94.1875 97.5 91.875 97.5H90.6562V93.4688H118.594V97.5H117.328C114.953 97.5 113.047 97.9375 111.609 98.8125C110.172 99.6875 109.453 101.547 109.453 104.391Z" fill="#8676D6"/>
</g>
<defs>
<linearGradient id="paint0_linear_2171_201" x1="100" y1="0" x2="100" y2="200" gradientUnits="userSpaceOnUse">
<stop stop-color="#C67CE8"/>
<stop offset="1" stop-color="#4D1D63"/>
</linearGradient>
<clipPath id="clip0_2171_201">
<rect width="200" height="200" fill="white"/>
</clipPath>
</defs>
</svg>
