<svg width="200" height="200" viewBox="0 0 200 200" fill="none" xmlns="http://www.w3.org/2000/svg">
<g clip-path="url(#clip0_2019_2)">
<ellipse cx="99.5" cy="100" rx="99.5" ry="100" fill="url(#paint0_linear_2019_2)"/>
<path d="M99.5 1C153.895 1 198 45.3191 198 100C198 154.681 153.895 199 99.5 199C45.1047 199 1 154.681 1 100C1 45.3191 45.1047 1 99.5 1Z" stroke="#97999B" stroke-width="2"/>
<path d="M4.41333 92.8667C28.0871 92.8667 28.1762 107.133 52.0729 107.133C75.9696 107.133 76.0142 92.8667 100 92.8667C123.986 92.8667 123.986 107.133 147.972 107.133C171.957 107.133 171.913 92.9558 195.631 92.8667M16.0496 53.6779C29.0679 57.3337 32.9021 66.4733 52.0729 66.4733C76.0142 66.4733 76.0142 52.2067 99.9554 52.2067C123.897 52.2067 123.941 66.4733 147.927 66.4733C167.098 66.4733 170.932 57.3337 183.95 53.6779M10.2983 133.883C28.1317 136.113 30.3608 147.793 52.0729 147.793C76.0142 147.793 76.0142 133.527 99.9554 133.527C123.897 133.527 123.941 147.793 147.927 147.793C169.639 147.793 171.69 136.068 189.702 133.883" stroke="#ADA3A3" stroke-width="1.5" stroke-linecap="round" stroke-linejoin="round"/>
<path d="M157.57 142.758V149.721H142.191V159.893C142.191 163.566 143.12 165.967 144.977 167.098C146.833 168.228 149.296 168.793 152.363 168.793H153.998V174H116.641V168.793H120.152C123.26 168.793 125.723 168.228 127.539 167.098C129.396 165.967 130.324 163.566 130.324 159.893V149.721H92.1191V144.635L130.445 85.4805H142.191V142.758H157.57ZM101.02 142.758H130.324V119.811C130.324 117.752 130.344 115.128 130.385 111.939C130.465 108.71 130.566 105.481 130.688 102.252C130.849 98.9824 131.01 96.278 131.172 94.1387C130.768 94.9056 130.021 96.2578 128.932 98.1953C127.842 100.133 126.893 101.828 126.086 103.281C125.682 103.967 125.057 105.017 124.209 106.43C123.361 107.842 122.534 109.215 121.727 110.547C120.919 111.839 120.354 112.727 120.031 113.211L101.02 142.758Z" fill="#ACC7F0"/>
<path d="M38.6914 94.7793C38.6914 91.7923 39.1556 89.1686 40.084 86.9082C41.0527 84.6478 42.3848 82.6497 44.0801 80.9141C45.7754 79.138 47.7734 77.5638 50.0742 76.1914C52.375 74.7786 54.8776 73.4264 57.582 72.1348C55.2409 70.8027 53.0814 69.3698 51.1035 67.8359C49.1257 66.2617 47.4303 64.5462 46.0176 62.6895C44.6048 60.8327 43.4948 58.8145 42.6875 56.6348C41.9206 54.4147 41.5371 52.013 41.5371 49.4297C41.5371 46.5638 42.0417 43.7988 43.0508 41.1348C44.0599 38.4707 45.6341 36.1094 47.7734 34.0508C49.9128 31.9922 52.6777 30.3372 56.0684 29.0859C59.4993 27.8346 63.5964 27.209 68.3594 27.209C72.2344 27.209 75.6855 27.7539 78.7129 28.8438C81.7402 29.8932 84.3034 31.3665 86.4023 33.2637C90.6406 37.179 92.7598 42.2852 92.7598 48.582C92.7598 51.2865 92.3561 53.668 91.5488 55.7266C90.7415 57.7448 89.6113 59.5814 88.1582 61.2363C86.7051 62.8509 84.9492 64.3242 82.8906 65.6562C80.832 66.9883 78.5514 68.2799 76.0488 69.5312C79.1165 70.9844 81.9017 72.5384 84.4043 74.1934C86.9473 75.8483 89.127 77.6445 90.9434 79.582C92.7598 81.5195 94.1523 83.6185 95.1211 85.8789C96.1302 88.1393 96.6348 90.6217 96.6348 93.3262C96.6348 97.2415 95.9284 100.753 94.5156 103.861C93.1029 106.929 91.1048 109.533 88.5215 111.672C83.3145 116.031 76.0892 118.211 66.8457 118.211C62.2038 118.211 58.127 117.605 54.6152 116.395C51.1439 115.143 48.2174 113.468 45.8359 111.369C41.0729 107.09 38.6914 101.561 38.6914 94.7793ZM81.7402 48.2793C81.7402 44.1217 80.61 40.5495 78.3496 37.5625C76.0892 34.5755 72.4967 33.082 67.5723 33.082C63.0514 33.082 59.5195 34.4746 56.9766 37.2598C54.474 40.0046 53.2227 43.5566 53.2227 47.916C53.2227 52.1947 54.6354 55.8073 57.4609 58.7539C58.8737 60.207 60.6094 61.5794 62.668 62.8711C64.7669 64.1224 67.1888 65.3939 69.9336 66.6855C74.4141 64.4251 77.502 61.9225 79.1973 59.1777C80.8926 56.4329 81.7402 52.8001 81.7402 48.2793ZM67.4512 112.52C70.1556 112.52 72.5977 112.116 74.7773 111.309C76.9974 110.461 78.8945 109.311 80.4688 107.857C83.6979 104.83 85.3125 100.895 85.3125 96.0508C85.3125 91.8932 83.6777 88.1999 80.4082 84.9707C78.6725 83.3158 76.4121 81.7012 73.627 80.127C70.8822 78.5124 67.5117 76.8372 63.5156 75.1016C59.6003 77.2005 56.4922 79.9251 54.1914 83.2754C51.8906 86.6257 50.7402 90.6419 50.7402 95.3242C50.7402 100.531 52.153 104.669 54.9785 107.736C57.9251 110.925 62.0827 112.52 67.4512 112.52Z" fill="#ACC7F0"/>
</g>
<defs>
<linearGradient id="paint0_linear_2019_2" x1="5.58613e-07" y1="0.159143" x2="199" y2="199.841" gradientUnits="userSpaceOnUse">
<stop stop-color="#134E9B"/>
<stop offset="1" stop-color="#0A2447"/>
</linearGradient>
<clipPath id="clip0_2019_2">
<rect width="200" height="200" fill="white"/>
</clipPath>
</defs>
</svg>
