<svg width="200" height="200" viewBox="0 0 200 200" fill="none" xmlns="http://www.w3.org/2000/svg">
<g clip-path="url(#clip0_2142_92)">
<rect width="200" height="200" rx="30" fill="#241E1E"/>
<path d="M153.985 176.31C152.618 176.31 151.252 176.242 149.885 176.105C148.518 175.968 147.083 175.763 145.58 175.49C136.287 173.713 127.882 170.638 120.365 166.265C112.848 161.892 106.083 156.767 100.07 150.89C94.1933 145.15 88.795 139.068 83.875 132.645C79.0917 126.222 74.7183 120.072 70.755 114.195C66.7917 108.182 63.1017 102.92 59.685 98.41C59.4117 97.7267 59.07 97.5217 58.66 97.795C58.3867 98.0683 58.25 98.205 58.25 98.205C55.2433 103.945 52.4417 109.343 49.845 114.4C47.385 119.32 45.54 123.283 44.31 126.29C43.2167 129.297 42.67 131.415 42.67 132.645C42.67 134.558 43.4217 135.515 44.925 135.515C46.8383 135.515 48.8883 134.217 51.075 131.62C52.5783 129.843 53.945 128.203 55.175 126.7C56.5417 125.06 57.7033 124.377 58.66 124.65C58.7967 124.787 58.865 124.992 58.865 125.265C58.865 125.948 58.3867 126.905 57.43 128.135C56.4733 129.228 55.9267 129.843 55.79 129.98C54.8333 131.347 53.535 133.192 51.895 135.515C50.3917 137.838 48.7517 139.888 46.975 141.665C45.335 143.578 43.5583 144.535 41.645 144.535C41.3717 144.535 40.5517 144.398 39.185 144.125C37.955 143.852 36.725 143.51 35.495 143.1C34.4017 142.69 33.7867 142.212 33.65 141.665C33.3767 139.068 33.9917 135.447 35.495 130.8C37.135 126.017 39.3217 120.755 42.055 115.015C44.7883 109.275 47.59 103.672 50.46 98.205C48.2733 97.6583 46.7017 97.18 45.745 96.77C44.3783 95.8133 43.695 94.515 43.695 92.875C43.695 91.5083 44.2417 90.2783 45.335 89.185C46.4283 88.0917 48.0683 87.545 50.255 87.545C50.9383 87.545 51.7583 87.6817 52.715 87.955C53.6717 88.2283 54.4233 88.7067 54.97 89.39C57.2933 85.29 59.3433 81.5317 61.12 78.115C63.0333 74.6983 64.4 72.0333 65.22 70.12C66.04 68.6167 66.5867 67.3867 66.86 66.43C67.1333 65.3367 67.27 64.5167 67.27 63.97C67.27 63.15 67.1333 62.4667 66.86 61.92C67.1333 60.28 68.09 58.0933 69.73 55.36C71.5067 52.6267 73.6933 49.8933 76.29 47.16C78.8867 44.4267 81.6883 42.1717 84.695 40.395C87.7017 38.4817 90.5033 37.525 93.1 37.525C93.92 37.525 95.15 37.7983 96.79 38.345C98.5667 38.755 100.207 39.4383 101.71 40.395C103.35 41.3517 104.375 42.7183 104.785 44.495C104.922 44.905 104.99 45.315 104.99 45.725C104.99 46.135 104.853 46.34 104.58 46.34C104.307 46.34 103.897 46.2717 103.35 46.135C102.94 45.8617 102.598 45.725 102.325 45.725C98.4983 45.725 94.1933 48.0483 89.41 52.695C84.7633 57.205 79.98 63.0133 75.06 70.12C70.2767 77.2267 65.7667 84.6067 61.53 92.26C62.2133 92.3967 62.965 92.6017 63.785 92.875C64.7417 93.0117 65.835 93.08 67.065 93.08C67.6117 93.08 68.09 93.08 68.5 93.08C69.0467 93.08 69.5933 93.0117 70.14 92.875C78.8867 91.9183 87.77 90.21 96.79 87.75C105.947 85.29 114.488 82.0783 122.415 78.115C130.342 74.1517 136.902 69.505 142.095 64.175C146.878 59.1183 149.27 53.925 149.27 48.595C149.27 44.6317 147.767 40.9417 144.76 37.525C141.753 34.1083 137.038 31.5117 130.615 29.735C126.788 28.6417 122.415 27.8217 117.495 27.275C112.712 26.7283 107.518 26.455 101.915 26.455C93.1683 26.455 84.1483 27.2067 74.855 28.71C65.6983 30.2133 57.0883 32.5367 49.025 35.68C40.9617 38.6867 34.1967 42.5133 28.73 47.16C23.2633 51.8067 19.9833 57.3417 18.89 63.765C18.48 67.045 19.095 69.6417 20.735 71.555C22.375 73.4683 24.3567 74.9717 26.68 76.065C29.14 77.0217 31.0533 77.91 32.42 78.73C33.3767 79.55 33.855 80.2333 33.855 80.78C33.855 81.7367 32.9667 82.0783 31.19 81.805C29.2767 81.395 26.885 80.4383 24.015 78.935C21.2817 77.4317 18.8217 75.3817 16.635 72.785C14.585 70.0517 13.56 66.9083 13.56 63.355C13.56 62.8083 13.56 62.2617 13.56 61.715C13.6967 61.1683 13.8333 60.6217 13.97 60.075C13.97 59.9383 13.9017 59.5283 13.765 58.845C13.765 58.025 13.765 57.3417 13.765 56.795C14.585 52.5583 16.635 48.595 19.915 44.905C23.3317 41.0783 27.1583 37.73 31.395 34.86C35.7683 31.8533 39.8 29.4617 43.49 27.685C49.9133 24.5417 57.635 22.0817 66.655 20.305C75.675 18.3917 85.105 17.435 94.945 17.435C100.958 17.435 106.903 17.845 112.78 18.665C118.793 19.485 124.602 20.7833 130.205 22.56C137.995 25.1567 144.008 29.1883 148.245 34.655C152.618 39.985 154.6 45.5883 154.19 51.465C153.78 57.0683 151.798 62.125 148.245 66.635C144.828 71.145 140.387 75.1083 134.92 78.525C129.59 81.805 123.645 84.675 117.085 87.135C110.662 89.4583 104.17 91.3717 97.61 92.875C92.28 93.9683 86.6767 94.8567 80.8 95.54C74.9233 96.2233 69.3883 96.7017 64.195 96.975C70.0717 104.218 75.88 111.53 81.62 118.91C87.4967 126.153 93.715 132.987 100.275 139.41C106.972 145.833 114.283 151.3 122.21 155.81C130.137 160.457 139.088 163.737 149.065 165.65C151.115 166.06 153.233 166.265 155.42 166.265C158.973 166.265 162.458 165.718 165.875 164.625C169.428 163.532 172.367 161.823 174.69 159.5C177.013 157.177 178.175 154.102 178.175 150.275C178.175 149.592 178.107 148.908 177.97 148.225C177.97 147.542 177.902 146.858 177.765 146.175C177.765 145.902 177.697 145.697 177.56 145.56C177.56 145.423 177.56 145.287 177.56 145.15C177.56 143.92 178.038 143.305 178.995 143.305C180.362 143.305 181.25 144.33 181.66 146.38C182.07 148.43 182.275 150.343 182.275 152.12C182.275 154.17 182.07 156.083 181.66 157.86C181.387 159.637 180.977 161.277 180.43 162.78C179.2 166.607 176.057 169.818 171 172.415C166.08 175.012 160.408 176.31 153.985 176.31Z" fill="white"/>
</g>
<defs>
<clipPath id="clip0_2142_92">
<rect width="200" height="200" rx="30" fill="white"/>
</clipPath>
</defs>
</svg>
